<?xml version="1.0" standalone="no"?>
<!DOCTYPE svg PUBLIC "-//W3C//DTD SVG 20010904//EN"
 "http://www.w3.org/TR/2001/REC-SVG-20010904/DTD/svg10.dtd">
<svg version="1.0" xmlns="http://www.w3.org/2000/svg"
 width="260.000000pt" height="260.000000pt" viewBox="0 0 260.000000 260.000000"
 preserveAspectRatio="xMidYMid meet">
<metadata>
Created by potrace 1.11, written by Peter Selinger 2001-2013
</metadata>
<g transform="translate(0.000000,260.000000) scale(0.100000,-0.100000)"
fill="#000000" stroke="none">
<path d="M115 2583 c-46 -24 -76 -54 -96 -98 -18 -38 -19 -93 -19 -1183 0
-1009 2 -1147 15 -1180 20 -47 50 -79 97 -103 36 -18 76 -19 1188 -19 1112 0
1152 1 1188 19 47 24 77 56 97 103 13 33 15 171 15 1178 0 1007 -2 1145 -15
1178 -20 47 -50 79 -97 103 -36 18 -76 19 -1190 19 -1032 -1 -1156 -2 -1183
-17z m1822 -784 c-221 -248 -408 -460 -416 -470 -12 -17 -5 -29 80 -126 105
-121 345 -398 614 -708 66 -76 119 -140 117 -142 -1 -3 -79 -4 -174 -3 -150 1
-173 3 -184 18 -11 15 -88 107 -583 689 -80 95 -151 173 -158 173 -8 0 -12
-71 -15 -252 -4 -246 -5 -255 -31 -322 -46 -118 -124 -204 -224 -248 -57 -25
-186 -58 -230 -58 l-33 0 0 128 0 127 52 13 c72 17 127 57 157 117 l26 49 3
733 2 734 141 -3 140 -3 -1 -432 c0 -238 3 -433 8 -433 14 0 36 22 114 115 42
50 127 149 190 221 62 72 191 222 287 332 l173 202 167 2 c91 2 169 2 173 0 4
-1 -174 -205 -395 -453z m-1437 -1316 l0 -133 -130 0 -130 0 0 133 0 132 130
0 130 0 0 -132z"/>
</g>
</svg>
